PathFileType	4	(X/Y/Z)	C:/Users/opensim2020/Desktop/walking_exp_matlab/subject03_walking07_straight_02.trc																																																																																																																																								
DataRate	CameraRate	NumFrames	NumMarkers	Units	OrigDataRate	OrigDataStartFrame	OrigNumFrames																																																																																																																																				
100	100	4	46	mm	100	1467	252																																																																																																																																				
Frame#	Time	LFHD			RFHD			LBHD			RBHD			C7			T10			CLAV			STRN			RBAK			LSHO			LUPA			LELB			LFRM			LWRA			LWRB			LFIN			RSHO			RUPA			RELB			RFRM			RWRA			RWRB			RFIN			LASI			RASI			LPSI			RPSI			LTHI			LKNE			LTIB			LANK			LHEE			LTOE			RTHI			RKNE			RTIB			RANK			RHEE			RTOE			*39			*40			*41			*42			*43			*44			*45		
		X1	Y1	Z1	X2	Y2	Z2	X3	Y3	Z3	X4	Y4	Z4	X5	Y5	Z5	X6	Y6	Z6	X7	Y7	Z7	X8	Y8	Z8	X9	Y9	Z9	X10	Y10	Z10	X11	Y11	Z11	X12	Y12	Z12	X13	Y13	Z13	X14	Y14	Z14	X15	Y15	Z15	X16	Y16	Z16	X17	Y17	Z17	X18	Y18	Z18	X19	Y19	Z19	X20	Y20	Z20	X21	Y21	Z21	X22	Y22	Z22	X23	Y23	Z23	X24	Y24	Z24	X25	Y25	Z25	X26	Y26	Z26	X27	Y27	Z27	X28	Y28	Z28	X29	Y29	Z29	X30	Y30	Z30	X31	Y31	Z31	X32	Y32	Z32	X33	Y33	Z33	X34	Y34	Z34	X35	Y35	Z35	X36	Y36	Z36	X37	Y37	Z37	X38	Y38	Z38	X39	Y39	Z39	X40	Y40	Z40	X41	Y41	Z41	X42	Y42	Z42	X43	Y43	Z43	X44	Y44	Z44	X45	Y45	Z45	X46	Y46	Z46
																																																																																																																																											
1	0	-1092.01758	1603.98291	914.13202	-1103.82556	1615.57739	1046.05249	-1224.14648	1573.75098	908.13959	-1230.90515	1584.36133	1038.43164	-1270.12524	1415.51965	966.03699	-1314.43848	1102.84729	974.78021	-1151.69922	1334.97986	982.71143	-1112.55737	1169.30359	987.26428	-1337.44763	1244.64319	1064.58972	-1176.08008	1369.11963	822.79529	-1188.49292	1169.71423	757.24884	-1191.43945	1046.10437	750.30475	-1179.50745	915.79474	751.99597	-1179.41626	795.34399	782.91681	-1196.21191	804.6402	728.76031	-1208.66028	717.97534	742.63403	-1212.59729	1366.99536	1133.79651	-1193.61987	1148.35571	1209.34094	-1165.28149	1039.65869	1223.82813	-1127.87927	907.69287	1229.57739	-1080.69727	818.6839	1198.42773	-1114.51941	807.92822	1239.51013	-1077.95996	741.93054	1231.38855	-1137.58093	939.89716	878.6543	-1162.43665	935.20636	1113.84021	-1304.224	962.86664	911.74701	-1317.09717	968.52753	1060.56628	-1161.71082	637.40704	837.56573	-1125.81799	464.5741	883.80975	-1143.38464	270.55115	886.83405	-1120.14966	62.76321	930.61047	-1156.41626	28.67822	968.39203	-966.06927	31.77622	952.29968	-1237.11951	637.44086	1164.4248	-1233.16882	456.43674	1149.63782	-1380.48804	329.48114	1141.52893	-1531.33081	179.00702	1089.38232	-1570.7583	194.10558	1028.18054	-1490.28931	41.49607	1080.96313	NaN	NaN	NaN	-1170.2489	1677.91309	952.93243	NaN	NaN	NaN	NaN	NaN	NaN	NaN	NaN	NaN	NaN	NaN	NaN	NaN	NaN	NaN
2	0.01	-1083.08972	1604.74402	913.76691	-1094.90405	1616.57202	1045.66077	-1215.07983	1574.23962	907.85211	-1221.91113	1585.07727	1038.10815	-1261.06799	1416.00354	965.66656	-1304.91577	1103.44177	974.41266	-1142.37939	1335.77441	982.65979	-1103.06165	1170.11841	987.216	-1327.92859	1245.25024	1064.37866	-1166.2998	1370.02258	822.87512	-1176.83899	1170.979	756.61993	-1178.46912	1047.30713	749.5553	-1164.22424	917.24048	751.58453	-1161.6604	797.01508	782.83405	-1178.74072	805.65527	728.69116	-1189.6571	718.77338	742.98059	-1203.4679	1367.87683	1133.47803	-1185.6095	1149.1084	1209.01465	-1158.32068	1040.13184	1223.59106	-1121.93384	907.87976	1229.37549	-1075.08435	818.5163	1198.43396	-1109.41602	807.9151	1239.18237	-1073.65381	741.05194	1230.71216	-1128.68225	940.28473	877.80542	-1152.86865	935.75885	1113.29407	-1294.9895	963.58154	911.43152	-1307.67761	968.80609	1060.2688	-1155.9989	637.69342	837.29016	-1121.66821	464.39249	883.69952	-1141.23486	270.797	886.77167	-1120.06104	62.82838	930.73309	-1156.42566	28.72765	968.55402	-965.86334	31.58492	952.28528	-1222.47217	636.81146	1164.49133	-1213.65698	456.09647	1150.17029	-1361.245	330.73651	1142.89685	-1516.1521	185.13896	1089.74854	-1555.72009	201.75819	1028.78723	-1478.02173	47.04499	1082.02368	NaN	NaN	NaN	NaN	NaN	NaN	NaN	NaN	NaN	NaN	NaN	NaN	NaN	NaN	NaN	NaN	NaN	NaN	NaN	NaN	NaN
3	0.02	-1074.1908	1605.49072	913.41388	-1086.03577	1617.5625	1045.29846	-1206.11157	1574.66663	907.60632	-1212.9917	1585.76001	1037.81128	-1252.03186	1416.46399	965.33881	-1295.47461	1103.88379	974.034	-1133.25708	1336.46533	982.5918	-1093.84009	1170.6582	987.18927	-1318.70459	1245.55701	1064.02673	-1156.68237	1370.57593	822.89783	-1165.26563	1171.78259	755.94403	-1165.47803	1048.01709	748.70154	-1148.94958	918.28979	751.0835	-1143.92737	798.26569	782.68695	-1161.14392	806.3432	728.6322	-1170.02551	719.32642	743.26538	-1194.47205	1368.36572	1133.34509	-1177.62378	1149.28198	1208.75903	-1151.33765	1040.15942	1223.5022	-1115.9292	907.59686	1229.30627	-1069.51782	817.94318	1198.65857	-1104.25671	807.47864	1239.06409	-1069.48657	740.05579	1230.24768	-1119.75439	940.42462	877.00519	-1143.53516	936.0332	1112.92126	-1286.0415	963.94147	911.01923	-1298.49561	968.61145	1059.91431	-1150.43469	638.11328	836.85565	-1117.69922	464.33264	883.42047	-1139.13184	271.01056	886.56354	-1119.8313	62.97799	931.1452	-1156.4314	28.77666	968.69031	-965.65796	31.38263	952.30261	-1208.05945	636.36316	1164.32605	-1194.18665	455.93295	1150.36609	-1341.83398	332.26358	1143.67944	-1500.70508	191.84764	1089.6759	-1540.40723	207.36879	1028.73242	-1462.39819	53.00356	1083.24866	NaN	NaN	NaN	-1152.9364	1679.39685	951.89331	NaN	NaN	NaN	NaN	NaN	NaN	NaN	NaN	NaN	NaN	NaN	NaN	NaN	NaN	NaN
4	0.03	-1065.32214	1606.15979	913.18915	-1077.21802	1618.45337	1045.03418	-1197.17627	1575.10876	907.32697	-1204.14941	1586.46008	1037.64355	-1242.99451	1417.05225	965.15521	-1286.17859	1104.21191	973.71857	-1124.25049	1337.09485	982.64337	-1084.73901	1171.17444	987.11371	-1309.67981	1245.67163	1063.48193	-1147.24597	1370.82336	822.90369	-1153.66858	1171.93298	756.1908	-1152.77502	1048.43054	747.86133	-1133.68567	919.1048	750.5777	-1125.9314	799.38116	782.41327	-1143.64575	806.76813	728.45374	-1149.8551	719.73407	743.45282	-1185.57617	1368.47131	1133.41711	-1169.72827	1149.03406	1208.63965	-1144.27185	1039.7312	1223.526	-1109.91614	906.95624	1229.40955	-1063.89355	816.89337	1198.95447	-1099.06213	806.59283	1239.05249	-1065.31592	738.64673	1229.96484	-1110.94849	940.35663	876.31915	-1134.34509	936.06494	1112.67285	-1277.34216	964.09943	910.52728	-1289.55054	968.07642	1059.54944	-1144.68311	638.58746	836.27167	-1113.87183	464.26151	882.90735	-1137.08411	271.26416	886.25232	-1119.92249	63.05357	931.11328	-1156.4353	28.79678	968.76984	-965.47144	31.21881	952.2782	-1193.875	636.32684	1164.06018	-1174.65796	456.37234	1150.62952	-1322.53992	334.45996	1143.48108	-1484.00916	197.35036	1089.72839	-1524.14124	211.77617	1029.01514	-1444.31506	58.36715	1084.57312	NaN	NaN	NaN	-1144.172	1680.08545	951.43701	NaN	NaN	NaN	NaN	NaN	NaN	NaN	NaN	NaN	NaN	NaN	NaN	NaN	NaN	NaN
